<svg width="122" height="78" viewBox="0 0 122 78" fill="none" xmlns="http://www.w3.org/2000/svg">
<path d="M121.226 46.6292C121.27 49.9548 120.709 53.3913 119.467 56.4723L111.604 74.4803C111.184 75.4181 110.67 77.7591 109.365 77.7613L90.0435 77.7251L83.109 77.1342C75.0487 76.1898 68.3337 74.6484 62.8613 68.2496C60.1331 65.0595 61.7699 65.2118 59.0952 68.3293C53.8757 74.4131 47.345 76.2137 39.7334 77.1205L35.645 77.565C30.6883 77.882 25.6819 77.7435 20.7165 77.7455L15.239 77.7467C11.9317 77.7469 12.0831 78.404 10.6778 75.2152L3.99109 59.8353C1.60315 54.4272 0.899521 52.8157 0.877016 46.8693C0.859112 42.1384 1.62113 38.8226 3.85234 34.5112L5.04811 32.3773C7.47581 27.7446 8.98287 22.433 9.60578 17.2647L9.84709 15.2355C10.0603 12.194 10.0892 7.19686 9.69558 4.24813C9.45743 2.46411 9.27109 0.535465 11.5987 0.303618C13.3744 0.1896 15.211 0.276097 16.9929 0.27574L18.6393 0.276216C19.4092 0.276573 20.0266 0.291228 20.4906 1.03061L20.5411 1.11377C20.9816 1.82028 20.7719 2.93615 20.7719 3.73344L20.7694 22.694C20.7699 23.938 20.6921 25.154 21.1143 26.3454C21.7378 28.1048 23.5963 29.6721 25.4489 29.9672C26.7665 30.1772 28.1527 30.0497 29.4873 30.1052C42.0584 30.6279 52.9959 39.3322 54.6942 52.1236C54.8778 53.5062 54.4189 53.7141 55.623 53.7138L67.1792 53.7161C67.2583 48.9433 69.6203 43.577 72.5015 39.8979C76.7884 34.4235 83.5269 31.0775 90.3643 30.2432C94.2238 29.7723 99.4493 31.1353 100.99 25.9868C101.321 24.8793 101.204 23.6585 101.205 22.5132L101.202 3.14679C101.206 -0.542757 103.16 0.273953 105.985 0.276812L109.246 0.279552C110.564 0.277407 111.935 0.0566404 112.438 1.62894L112.468 1.73879C112.868 3.15823 112.292 4.83632 112.193 6.28877L112.133 9.05855C112.121 12.0834 111.999 15.2385 112.474 18.2398L113.169 22.0384C113.33 22.9151 113.831 24.8936 114.171 25.7753L114.326 26.2222C115.16 29.294 116.847 32.1789 118.281 34.9902L119.859 38.583C120.741 40.6484 121.226 44.2741 121.226 46.6292ZM13.0454 3.62883L13.1544 6.35584C13.3997 9.5643 13.3502 12.6919 13.1057 15.8878L12.9875 17.6366C12.4762 22.2664 11.2591 26.8739 9.36614 31.134L7.73257 34.5028C6.39275 37.0272 5.04518 39.4338 4.54787 42.2888C4.2695 43.8869 4.069 48.2396 4.39153 49.8538C4.66842 51.2396 4.53529 52.4386 5.12727 53.9224C9.31973 64.4307 24.0277 65.8724 33.7358 64.8332C34.299 64.7729 34.8732 64.7457 35.4311 64.6488L37.8981 64.1999C40.2092 63.6823 42.5304 63.0108 44.727 62.1178L34.8068 47.7887C31.3007 42.7275 29.1549 39.7134 24.5657 35.709L21.8556 33.2738C19.4522 31.1302 18.2173 30.0767 17.5221 26.7746L17.5021 26.6825C17.3706 26.0243 17.4288 25.2772 17.4284 24.6062L17.4349 4.92234C17.4348 4.52489 17.4966 3.99555 17.3865 3.61728L13.0454 3.62883ZM107.555 3.6423L104.563 3.65028C104.502 4.35619 104.529 5.07234 104.529 5.78075L104.528 20.4566C104.528 22.4166 104.673 24.4783 104.371 26.4074C103.638 31.0911 98.6026 34.5439 95.4062 37.5292C91.5907 41.0928 88.8927 45.3509 85.9373 49.6127L77.2906 62.0909C80.2574 63.4708 85.1262 64.5233 88.2976 64.8079C98.6692 66.0782 115.917 63.8846 117.508 50.8999C118.086 46.1773 117.586 41.7677 115.622 37.4168L113.148 32.4392C110.65 27.1093 109.197 21.2171 108.837 15.3444L108.781 8.14974L108.967 5.25343C109.017 4.71313 109.112 4.17462 109.137 3.63312L107.555 3.6423ZM28.2898 33.578L27.403 33.592C30.0671 35.8943 32.464 38.6257 34.57 41.4455L46.0687 58.1004C47.2807 59.7663 47.7501 61.8168 49.9442 59.9845C53.7733 56.1691 50.1271 46.7376 47.6133 43.095C43.3609 36.9329 36.1109 33.5834 28.6812 33.5698C28.557 33.5696 28.4105 33.5555 28.2898 33.578ZM92.4057 33.5872C79.8875 34.2257 69.7086 43.7979 70.4901 56.7962C70.5725 58.164 71.5919 59.8545 72.8632 60.414C74.586 60.8083 74.4831 60.14 75.5291 58.6536L85.7816 43.8021C87.2103 41.8223 88.5712 39.8263 90.2022 38.0034L92.9042 35.1583C93.2231 34.8374 94.1806 33.803 94.4845 33.5783L92.4057 33.5872ZM54.8838 57.1175L54.5523 58.6972C54.5072 58.8782 54.4774 59.0962 54.3604 59.2436L67.2102 59.193L67.6583 59.1756C67.7262 58.9468 67.2772 57.4887 67.1952 57.1538L54.8838 57.1175ZM57.2692 62.6238C55.6472 62.6255 53.9185 62.4986 52.3208 62.7973C51.7568 62.9027 51.1232 63.3806 50.5714 63.6029L44.4391 65.896C37.3226 68.3851 29.5724 69.1761 22.0816 68.2167L19.4497 67.7713C17.1388 67.316 14.7285 66.5708 12.5874 65.5779L9.58977 64.0166L11.7048 69.0192C11.7467 69.1222 11.7929 69.2148 11.847 69.3116C12.0262 69.8323 12.2804 70.3186 12.4878 70.8275L13.5331 73.305C13.6705 73.6099 13.7848 74.0769 14.038 74.2955L33.679 74.2293L37.7304 73.8861C44.4391 73.2068 50.5444 72.1369 55.4312 67.1653C56.6964 65.8783 58.0707 64.3087 58.8116 62.6528L57.2692 62.6238ZM63.6242 62.6238C63.4873 62.6175 63.3498 62.622 63.2154 62.6513C63.4605 63.9551 65.8979 66.4707 66.8051 67.3591C71.1033 71.5669 75.1915 72.4442 81.0626 73.4019L87.6018 74.1545C88.009 74.1822 88.4101 74.2529 88.818 74.2712L108.016 74.2773L110.579 68.3881L112.39 64.0852C106.578 67.2386 100.835 68.5416 94.304 68.5513L90.8183 68.5209C86.0541 68.2483 80.3911 67.1861 75.938 65.2848C75.3848 65.0486 74.8709 64.7276 74.3139 64.5C73.5322 64.1807 72.6913 63.9929 71.8991 63.6919L70.6597 63.1695C69.4549 62.5958 68.3332 62.6314 67.009 62.6248L63.6242 62.6238Z" fill="black"/>
</svg>
