<svg width="80" height="122" viewBox="0 0 80 122" fill="none" xmlns="http://www.w3.org/2000/svg">
<path d="M22.0172 122L20.026 121.632C10.4735 119.593 8.08433 112.621 6.67156 103.652L6.20477 100.03C5.17742 99.3685 4.32378 98.5044 3.41819 97.694C2.02496 96.4471 0.701066 95.6264 0.988553 93.531C1.16726 92.2282 1.57615 90.9274 1.83886 89.6363C3.83029 79.8479 6.63522 67.38 11.9301 58.8555L14.4094 55.1287C16.709 51.3172 14.4519 49.1158 12.6702 45.7127C9.99773 40.6085 9.62315 35.6675 11.7509 30.2923C12.5411 28.296 13.697 26.5533 14.6833 24.6651C15.2342 23.6103 17.0718 19.3042 17.0163 18.067C16.9984 17.6693 16.6833 17.0954 16.5492 16.711L14.8695 10.9258C14.6124 9.87235 14.414 8.75195 14.2968 7.67494C13.8744 3.79699 16.27 0.888876 20.052 0H21.7527C22.4403 0.399226 23.1103 0.71349 23.3515 1.54079L23.4007 1.68437C23.5254 2.02055 23.5236 2.35729 23.5508 2.71045L23.6367 4.68781C23.8264 7.75632 23.9946 10.8189 23.8208 13.8969C23.7408 15.3131 23.5264 16.7052 23.3676 18.1095C23.3242 18.4928 23.7945 18.6112 24.0821 18.7733L36.8247 25.777C37.9889 26.4035 39.12 27.1286 40.315 27.6946L40.6849 27.8532L45.1562 25.7369C48.3485 24.2393 53.4048 22.2961 54.7209 18.7325C55.6217 16.2934 55.9428 10.8654 56.1122 8.27068L56.3025 3.91675C56.3158 1.89829 56.3397 1.08658 58.1733 0H59.9397C62.234 0.928995 64.3437 2.03901 65.3941 4.46771L65.8293 5.49753C66.9204 7.96616 65.8895 11.1418 64.9695 13.4822L63.4924 16.9214C62.8515 18.438 63.487 22.364 64.2027 24.0734L64.6257 25.1554C65.3814 27.0213 66.6249 28.621 67.2586 30.5596L67.9561 32.7935C68.0522 33.2469 68.1411 33.7111 68.2469 34.1617L68.3907 35.0718C68.9529 37.4944 68.0418 41.697 66.9564 44.0225C66.3522 45.3168 65.5367 46.5542 65.0503 47.8969C64.5106 49.3871 64.2722 50.8825 63.99 52.4355L64.0394 52.5092C64.3238 52.9436 64.544 53.4857 64.7655 53.9578L69.8839 65.366L73.6995 76.1011L74.1486 77.6479C74.3673 78.5379 74.6537 79.4722 74.9358 80.3465L77.6009 90.9352L78.9031 96.6841C79.3683 98.5482 78.9922 99.0759 77.62 100.478C76.3936 101.73 75.1316 102.775 73.5946 103.618C73.4547 103.695 72.945 103.885 72.88 103.98C72.8395 104.039 72.8718 106.14 72.8662 106.389L72.7056 108.625C72.1932 114.425 70.2536 120.252 63.9736 121.631C63.3926 121.758 62.5799 121.743 62.0667 122H22.0172ZM19.7751 4.44653C18.0721 5.38692 17.9613 6.89183 18.4601 8.60802L19.5103 12.9733C19.5625 13.1959 19.6177 13.3906 19.7139 13.5979L19.8461 7.65007C19.8428 6.61371 19.9517 5.45896 19.7751 4.44653ZM60.3287 4.67627C60.1671 5.01512 60.2281 5.47658 60.2277 5.83749L60.2026 8.1264L59.515 15.5454L60.2441 14.1036C61.4508 11.8576 63.235 8.32683 61.6019 5.8982L61.5436 5.81008C61.2469 5.37223 60.8685 5.04446 60.434 4.752L60.3287 4.67627ZM59.1238 20.3433C58.4719 21.0333 57.9363 21.794 57.33 22.5206C53.994 26.5188 49.3803 28.2668 44.7897 30.4077L42.7574 31.3924C39.9841 32.7994 39.9864 32.1886 37.3922 30.7255L20.413 21.2459C19.8627 22.7478 19.3624 24.2437 18.6609 25.6879C16.8026 29.5146 15.0375 31.32 14.4707 36.0503C14.2788 37.6524 14.3163 39.1326 14.8874 40.6814L15.1167 41.3523C15.5584 42.4369 16.0109 43.4053 16.6172 44.4132C17.3592 45.6156 18.042 46.8636 18.5987 48.1626L19.1225 49.5493C19.2407 49.8427 19.2433 50.333 19.4249 50.568C23.0149 52.1066 32.2695 52.1804 36.1417 52.1749L41.0272 52.1642C41.5225 52.1477 41.9977 52.0223 42.4979 52.0093L49.5946 51.8931C52.3428 51.8191 55.356 52.2248 58.0371 51.4608C58.7868 51.2473 59.4843 50.9865 60.2533 50.8272C60.4471 49.0322 60.882 47.1405 61.6871 45.5142C64.5705 39.6905 65.9035 36.6777 62.7047 30.2293L61.7161 28.4414C60.6474 26.4431 59.7938 24.3035 59.4199 22.0604C59.3287 21.5137 59.3969 20.8608 59.207 20.3458L59.1238 20.3433ZM19.0188 54.6558C18.2765 56.9441 16.8477 58.6638 15.5589 60.6445C11.9576 66.1786 10.0157 72.756 8.35752 79.0796L5.41356 92.023C5.30633 92.5447 5.09462 93.1267 5.06018 93.6524C10.5066 98.8204 15.2967 100.52 23.0341 100.319C28.1672 100.186 30.8209 98.2015 35.1156 95.8918C39.048 93.7769 43.0709 93.6145 46.9065 95.8348C47.889 92.835 47.3444 90.4301 46.7998 87.3827C46.27 84.4178 45.6527 81.4954 45.3597 78.492L44.8781 71.6486L44.8636 62.3376C44.8646 61.7625 44.7621 61.0947 45.0597 60.5867L45.105 60.5058C45.3688 60.0416 45.738 59.7344 46.2422 59.5589L46.3278 59.5285C47.3399 59.1916 48.1257 59.7381 48.608 60.5863L48.6548 60.666C49.0417 61.3746 48.8004 62.9377 48.8023 63.7514L48.8118 69.6954C48.8137 70.4751 48.7054 71.4921 48.9049 72.2438L49.8584 81.8496C50.4887 85.7475 52.0067 90.8351 51.4113 94.76L51.2156 95.7919C51.061 96.7371 50.6124 97.6285 50.0759 98.4088C52.7074 101.66 56.3611 102.512 60.3209 102.516C65.7703 102.52 70.7913 101.208 74.9546 97.5203L72.3039 86.1152C70.9305 80.7254 69.3586 75.3741 67.4165 70.1595L61.9845 57.5531C61.603 56.7218 61.2461 55.7645 60.7559 54.9971C58.4014 55.7068 55.9035 55.98 53.4502 55.9866L44.7421 56.2649L34.8244 56.3025C30.5898 56.2976 26.46 56.1742 22.2766 55.4135L20.1421 54.9466C19.8144 54.8622 19.3506 54.6622 19.0188 54.6558ZM40.4668 98.3725C37.8134 98.7163 35.7625 100.428 33.4706 101.64C26.4007 105.38 17.896 105.106 10.5391 102.333C10.5858 102.998 10.7441 103.63 10.8741 104.28C11.7796 108.809 13.1573 114.638 17.7671 116.735C20.9719 118.194 24.4548 117.934 27.888 117.938L38.1704 117.938L52.7351 117.939C63.751 117.944 68.4904 119.384 68.8175 105.429C63.1957 106.944 56.2406 107.484 50.9975 104.476C47.2659 102.335 45.4008 97.7625 40.4668 98.3725Z" fill="black"/>
</svg>
