<svg width="106" height="85" viewBox="0 0 106 85" fill="none" xmlns="http://www.w3.org/2000/svg">
<path d="M64.1034 83.6898C61.4735 82.5497 60.5556 79.6479 59.5294 77.2257L52.8564 62.6479C52.6527 62.9181 52.5141 63.2775 52.3641 63.5813L45.7033 78.951C43.7648 83.5635 42.2466 84.2156 37.0275 84.6861L30.6848 84.9376C21.9578 84.935 9.45492 82.3941 2.42714 76.6394C-0.356557 74.36 0.611353 73.7885 1.28124 70.7718L9.47089 37.3999L15.683 17.0156L16.6078 14.7741C17.1203 13.6359 16.8932 14.1865 16.8348 13.1228C16.7366 11.3299 16.8862 9.51324 16.8171 7.7166C16.796 7.16843 16.507 6.46038 16.6591 5.93937C17.636 2.59319 20.2396 0.574115 23.7662 0.385635C25.3382 0.361569 26.7619 1.20675 28.227 1.67914C29.3563 2.04336 30.5708 2.29832 31.749 2.43199L36.088 2.79871C36.5736 2.83779 37.0528 2.92988 37.5408 2.95097L69.2124 2.94573C71.6495 2.87567 74.6732 2.5011 76.9676 1.81437C78.9909 1.20878 80.8918 0.181904 83.0726 0.502392C86.5412 1.01219 89.9014 3.85251 90.0863 7.51966C90.1808 9.39398 90.3899 12.6661 89.5547 14.2693L92.5124 23.7021C92.6382 24.3252 92.8964 25.0014 93.105 25.6093C93.7507 27.4907 94.0792 29.4766 94.737 31.355L95.1302 32.7052C95.2456 33.2645 95.4926 33.8093 95.6078 34.3705L95.8464 35.2381C95.9571 35.8289 96.2072 36.4047 96.3199 36.9954L96.5642 37.9345C96.5863 38.0542 96.6034 38.1533 96.6437 38.269L100.151 52.1605C100.18 52.3537 100.256 52.5246 100.285 52.7151L104.743 71.3578L105.385 73.3089C105.483 73.743 105.621 74.0114 105.453 74.4781L105.394 74.6587C104.586 77.0748 97.6652 80.2287 94.8627 81.3455C90.4018 83.1233 85.8307 84.1876 81.0565 84.6582L78.8585 84.8853L69.8398 84.8288L68.5902 84.6704C67.3704 84.5546 66.0698 84.4339 64.908 84.0237L64.1034 83.6898ZM23.4946 4.4911C22.3445 4.64861 20.5237 5.35618 20.7484 6.77979C21.0052 8.4063 20.624 10.2324 20.8574 11.6423L47.8962 12.9316L50.5169 12.9265C50.5919 12.2199 50.6938 7.89435 50.536 7.16211L41.4547 7.14448C40.9222 7.13424 40.3988 7.03904 39.8656 7.02892L34.7455 6.96661C32.1097 6.81887 29.2804 6.37471 26.7755 5.57194L25.1032 4.94944C24.5524 4.72426 24.1077 4.43153 23.4946 4.4911ZM82.2389 4.60643C81.0503 4.76822 79.9787 5.25527 78.8369 5.58815C75.2574 6.63182 70.6787 7.26529 66.8892 7.43066L54.6873 7.4577C54.5161 7.72601 54.6178 12.4206 54.6451 13.0605L58.5884 13.1064L64.3351 13.0919C65.0045 13.0734 65.6561 12.9541 66.3263 12.9413L70.7909 12.9214L77.8905 12.4266L85.0322 11.5579C85.4164 11.4914 85.8517 11.4986 86.1889 11.286L86.1922 9.18917C86.1892 6.73428 84.8695 4.80933 82.2389 4.60643ZM85.2691 15.8098L72.3218 17.0066C72.013 17.0266 71.7158 17.099 71.4091 17.123L54.6114 17.2625L54.6183 35.6016C54.6251 38.1948 54.239 40.3186 52.1823 42.1766C51.4045 42.8794 50.0829 43.6135 49.0064 43.5537C47.2282 43.4551 46.4446 41.108 47.8413 40.0095C48.1763 39.746 48.5778 39.6179 48.9416 39.4048C50.825 38.3009 50.5562 36.0818 50.5574 34.2311L50.5583 21.3338C50.5577 19.9434 50.6172 18.5218 50.537 17.1357L20.4823 15.8877C19.2913 18.8907 18.3415 21.9618 17.3748 25.0413L14.0583 36.3721L7.09308 63.9701C8.95036 64.8182 11.029 65.4141 12.9884 65.9845L43.8198 72.9243C43.9897 72.6296 44.0896 72.2769 44.2123 71.9596L44.9772 70.0246L50.6689 57.9486C50.864 57.5951 51.0532 57.193 51.3166 56.8847C52.2409 55.8038 53.9574 55.8586 54.7422 57.0881C55.3399 58.0246 55.7422 59.1456 56.207 60.1559L59.2663 66.7719C59.9437 68.5011 61.1131 71.2083 62.1474 72.7837L74.5083 70.7933L88.9496 67.2541L94.4301 65.5877C95.8724 65.0857 97.3515 64.4573 98.825 64.0709L85.787 15.7623L85.2691 15.8098ZM6.16176 68.0611L4.88945 73.2333C8.83956 77.2665 20.4459 80.1498 25.7157 80.6039L33.2216 80.7783L34.7827 80.6544C35.371 80.6221 35.9661 80.6346 36.5525 80.5768L40.089 80.0961C40.9525 79.7358 41.33 78.7199 41.6652 77.9036L42.0704 76.871L29.4161 74.5994L14.0552 70.7083L6.16176 68.0611ZM99.6614 68.1805L87.3032 72.0484L71.4944 75.548L63.7485 76.7276L64.2643 77.9202C64.6777 78.9609 65.0724 79.6088 66.0572 80.0936C67.8255 80.507 69.5805 80.565 71.3792 80.6846C81.0784 81.3292 91.3618 79.4828 99.672 74.321L101.241 73.2914L99.6614 68.1805Z" fill="black"/>
</svg>
