<svg width="106" height="88" viewBox="0 0 106 88" fill="none" xmlns="http://www.w3.org/2000/svg">
<path d="M77.0273 80.128C76.2773 80.5895 76.4249 80.9509 76.1776 81.6819L76.111 81.8983C75.6 84.0942 73.3264 85.8348 71.2397 86.3395C70.3251 86.5607 69.3551 86.576 68.4207 86.6435L57.698 87.5617L45.1204 87.5752L37.4009 86.8917C32.8095 86.2885 30.5283 84.9474 29.4618 80.3919L27.1882 79.6331C23.9653 78.5744 21.7052 80.5846 19.1203 80.3466C16.2316 80.0808 15.4735 78.1915 14.1471 76.0897C11.4397 71.7996 7.75227 72.1024 3.5118 72.1059C2.90582 72.1064 2.27701 72.1896 1.72319 71.9051C0.308475 71.1785 1.15779 70.1983 0.82439 69.1938C0.454994 68.0809 1.03222 66.6753 1.32133 65.591L12.7369 28.404L20.6485 7.69189C20.8336 7.22713 20.7664 6.67896 20.7626 6.18572L20.7606 3.89762C20.7618 2.28756 20.7013 1.17455 22.5431 0.637817L27.4518 0.727649C27.9417 0.756481 28.4219 0.868473 28.9133 0.886821L34.8515 1.13368L40.3532 1.18956C41.2332 1.22339 42.1095 1.3697 42.9922 1.38256L62.7457 1.37851L69.9238 1.15393C71.0984 1.14774 72.2231 1.00525 73.3879 0.95759L81.9023 0.659024C83.1522 0.636268 84.7806 0.522488 85.177 2.19439L85.1956 2.30078C85.5345 3.92622 84.9665 6.81037 85.4757 8.04062L91.8745 24.4707L95.6073 35.958C95.8388 37.1641 96.3273 38.2733 96.5628 39.4686L97.0531 41.3302C97.2736 42.6125 97.8047 43.8349 98.0052 45.113L99.2466 50.3703C99.337 50.6378 99.391 50.9143 99.4365 51.1929L101.334 58.6245C101.437 59.08 101.618 59.5438 101.761 59.9924L104.234 66.9346L105.479 69.7493C105.609 70.0163 105.546 70.4136 105.454 70.6823L105.421 70.7769C104.963 72.087 103.998 72.1149 102.855 72.1112L99.9478 72.104C91.0275 72.0991 92.4868 78.2986 88.4146 79.9787L88.3133 80.0199C85.1559 81.3259 82.0193 78.0217 77.081 80.1046L77.0273 80.128ZM24.1105 4.20477L24.108 5.81483C24.108 6.07134 24.0667 6.40136 24.1378 6.64644L81.549 6.65811L81.8816 6.61963L81.768 4.18404C80.8984 4.25933 79.9845 4.20167 79.1093 4.21418L75.8206 4.38896C73.1533 4.47665 70.5097 4.59936 67.8431 4.7017L66.0847 4.7957C65.7465 4.82585 65.4258 4.89936 65.0814 4.91199L44.6841 4.9177C43.7705 4.89566 42.8677 4.73042 41.9539 4.70778L37.0635 4.64642L25.5595 4.19917C25.0909 4.19726 24.5741 4.15163 24.1105 4.20477ZM82.2864 9.95271L65.0451 11.0615L59.5089 11.3421L42.6288 11.3493C41.8929 11.3269 41.1617 11.1808 40.423 11.1435L27.53 10.3334C26.1521 10.2502 24.7279 10.0067 23.3517 10.0254C22.499 11.8498 20.9554 15.5872 20.4181 17.5422C21.8895 18.2509 24.688 19.1558 26.3365 19.5339C30.4214 20.8796 36.3678 21.9072 40.5796 22.3781L45.7567 22.8902C46.1115 22.9288 46.4371 23.0177 46.7973 23.0391L57.4996 23.0581L59.506 22.8597C63.6728 22.5378 67.8276 22.0476 71.9444 21.3263L86.0231 18.3358L83.6387 12.5941C83.3889 11.9756 82.907 9.85978 82.2864 9.95271ZM19.0895 20.739L13.2607 37.1419L4.66737 66.0963L4.14529 68.6236C4.51904 68.7151 5.04182 68.6509 5.43189 68.651C8.45425 68.6519 11.389 69.1178 13.9127 70.9353L13.9975 70.9979C14.6798 71.5056 15.4884 72.2148 16.0434 72.8736L17.2998 66.8768L26.676 25.1249C26.7979 24.5262 26.9867 23.914 27.0596 23.3094L23.6425 22.2894C22.1423 21.8376 20.5103 21.4033 19.0895 20.739ZM87.0978 21.5718L78.7299 23.4052L83.1165 43.3218C83.2219 43.6887 83.2479 44.0737 83.3626 44.4377L89.0847 69.8751C89.192 70.2354 89.6686 72.9239 89.7702 73.0031C90.2392 72.4175 90.7456 71.8694 91.3454 71.415C94.4547 68.9015 97.5295 68.5913 101.34 68.6593L87.0978 21.5718ZM30.3225 24.0562L18.8421 75.6651C18.7637 76.0451 18.6762 76.3718 18.6824 76.7637C19.1794 77.3017 21.7833 76.4076 22.4367 76.2682C23.7851 75.9807 25.298 75.9878 26.6617 76.1466C27.7911 76.2545 28.7842 76.5763 29.8695 76.8722L38.4624 25.5303C35.7518 25.2512 32.9434 24.807 30.3225 24.0562ZM75.1538 24.1825L67.3053 25.507L70.7661 45.8548C70.8111 46.1466 70.8194 46.4523 70.8754 46.7402L75.7543 75.2216C75.8408 75.7329 75.8644 76.2406 76.0045 76.7418C77.2925 76.4225 78.5385 76.1456 79.8637 76.0282C80.5994 75.9697 81.3846 75.944 82.1185 76.0323L83.4989 76.2467C84.1063 76.3719 86.7636 77.1486 87.1697 76.8801L75.488 24.3643C75.4604 24.2487 75.4526 24.2294 75.3686 24.1378L75.1538 24.1825ZM63.9048 25.98C61.7306 26.2855 58.8274 26.4849 56.5692 26.579L48.5856 26.5636C47.9722 26.5354 47.3813 26.4325 46.7717 26.3877L41.8261 26.064L40.296 35.2472L32.9036 78.8135C32.7722 79.649 32.6629 79.7635 33.0219 80.6467C34.1546 83.433 36.6067 83.358 39.2094 83.6176C40.1041 83.707 40.9743 83.823 41.8751 83.8577L44.5112 84.1098L58.0337 84.0892C58.5494 84.0619 59.0366 83.9353 59.5432 83.896L68.4379 83.1489C69.689 83.0354 70.775 83.1677 71.8055 82.2864C73.549 80.7953 73.0941 80.1199 72.8375 78.4316L64.1679 27.0036C64.1191 26.6909 64.1025 26.2849 63.9778 25.9968L63.9048 25.98Z" fill="black"/>
</svg>
