<svg width="111" height="116" viewBox="0 0 111 116" fill="none" xmlns="http://www.w3.org/2000/svg">
<path d="M82.5784 111.711C80.0547 112.859 77.4983 113.921 74.7492 114.389L70.1312 114.979C69.7366 115.017 69.348 115.106 68.9527 115.126L47.6638 115.142C45.8629 115.142 44.1304 115.196 42.3423 114.991L40.006 114.741C33.8895 114.109 31.4199 112.558 25.8581 110.123L24.044 109.351C22.4007 108.662 21.9349 108.266 22.1342 106.534L24.9695 78.929C25.021 78.189 24.9925 77.4353 24.9963 76.6933L25.0002 63.9656L24.6344 59.1524C24.5371 58.1834 24.4635 57.1924 24.2835 56.2347L23.8242 53.7587C23.6291 52.6836 23.1759 51.2588 24.4963 50.6932C26.6537 49.7692 27.001 54.0609 27.1679 55.2903L27.6749 59.3853C27.8494 61.1022 27.6846 62.9936 27.9495 64.5222C28.0758 65.2508 28.061 65.9876 28.0627 66.724L28.0606 78.7299C29.8287 78.8769 31.5928 79.4987 33.3085 79.9369L35.7314 80.5685C36.3724 80.753 37.1855 80.8805 37.4138 81.6201L37.5177 81.8939C37.5832 82.1285 37.5721 82.5702 37.4579 82.7854L37.4264 82.8416C36.5756 84.5612 34.1666 83.3412 32.8147 83.0044C31.1409 82.5873 29.4348 82.2622 27.7922 81.7306L25.2289 106.388L25.5048 106.55C25.9025 106.755 26.3458 106.899 26.7608 107.069L28.8366 107.981C34.0384 110.392 38.9194 112.744 44.8464 110.877C49.0585 109.55 52.5229 105.803 53.7726 101.599C54.3594 99.6256 54.2698 97.6627 54.2693 95.6336L54.2656 57.2843C54.27 55.4199 55.1589 53.4815 55.9976 51.8478L54.3032 49.83C49.8913 44.1135 47.7435 37.072 45.4958 30.315L39.2674 12.0125C39.1669 11.7431 39.0341 11.538 38.8719 11.3029L36.3709 14.467L36.8619 14.6613C37.9305 15.1495 38.7596 16.0586 37.9686 17.2016C36.893 18.7558 34.5524 16.6635 33.2374 16.9021C31.6536 17.1895 30.1027 17.8057 28.5387 18.2055L14.9985 21.2937C13.9926 21.4601 13.0493 21.6806 12.4337 22.5638L12.3722 22.6541C11.6892 23.629 11.9129 24.6497 11.7914 25.7633L8.47392 57.0344L5.48773 80.5779L4.53587 91.1192C4.44471 92.153 4.52465 93.2127 4.3905 94.24L4.31667 95.0295C4.17361 95.9162 4.25599 96.9062 4.22892 97.8075L4.06804 101.904C4.06674 102.635 4.15871 103.465 4.07056 104.183C3.86014 105.897 1.24986 105.757 1.02563 104.035C0.943371 103.404 1.00965 102.674 1.00902 102.033L1.25641 94.4196C1.3396 93.1149 1.40137 91.5904 1.52272 90.3391L2.69027 78.1709L6.88272 43.4543L8.76259 24.5493C8.94691 22.084 9.76635 20.0857 12.1164 18.8596C13.2778 18.2539 14.5588 18.19 15.8205 17.9648L19.2458 17.2531L32.2561 13.9627C33.1394 13.7226 32.9834 13.8303 33.5384 13.1062L42.3094 2.25205C42.9544 1.4695 43.6756 0.193836 44.9283 0.722821L49.3019 2.42023C52.7829 3.73297 55.4088 4.87198 59.3343 3.63152C60.2194 3.35185 61.0065 2.86729 61.8635 2.52532L67.5251 0.411327C68.503 0.272147 68.8377 0.77498 69.3987 1.45033L70.6621 2.95777C72.9266 5.65069 75.258 8.29319 77.3429 11.1307L78.7313 13.0464C79.0686 13.5361 79.0299 13.8551 79.6409 13.9519L97.6092 18.178C101.66 18.9012 102.778 21.0935 103.202 25.0581L105.575 47.9631L108.763 73.1955L110.916 97.5921L110.95 103.369C110.994 106.144 108.19 105.622 107.965 104.244L107.955 104.168C107.76 102.68 107.936 101.088 107.883 99.5833L107.166 87.2794L104.671 66.1023L101.607 39.7127L100.169 25.635C99.7331 21.7821 99.9208 21.8803 95.7055 21.0192L80.5088 17.2711C78.5281 16.6742 78.6511 16.8683 76.6924 17.6081C73.9997 18.6251 72.5207 15.4927 75.8951 14.5085C75.0303 13.5653 74.3514 12.3893 73.5507 11.3821C73.2846 11.626 73.1088 12.0936 72.9697 12.425L70.9041 17.9351L66.6659 31.4919L62.5947 42.4074C61.985 43.7558 61.2433 45.0418 60.7027 46.4196C61.3434 45.7935 61.8805 45.1096 62.44 44.4129L64.9339 41.0699L77.6118 21.5722C77.9797 21.0436 78.3028 20.1929 79.0263 20.0965C79.8888 19.9814 80.6798 20.5323 80.7935 21.4103L80.8028 21.4841C80.9875 22.6967 79.6663 23.9289 79.0501 24.8796L75.0929 31.0117C71.1723 37.1093 67.6671 43.7245 62.6423 49.0175L60.7674 50.8984C59.0651 52.5151 57.7025 54.2249 57.7153 56.7367L57.7237 95.0794C57.7253 96.9286 57.633 98.8408 58.0292 100.653C59.633 107.991 66.4439 112.558 73.9391 111.36C78.7451 110.591 82.3292 107.977 86.6224 106.448L86.7362 106.408C86.7674 105.827 86.6304 105.196 86.5862 104.612L84.27 81.9254C83.5704 82.0384 82.8865 82.2918 82.1985 82.4623L78.0674 83.4177C77.4963 83.5459 76.8911 83.7536 76.3077 83.7935C74.9397 83.8871 73.3631 81.4994 76.723 80.6015L83.9393 78.7706C84.1234 77.782 83.7065 75.549 83.6959 74.4124L83.7048 64.0471L84.1587 58.7925C84.2985 57.53 85.0114 51.6769 86.0399 50.9046C87.3357 49.9318 88.6999 51.2688 88.3183 52.9084C87.8889 54.753 87.4832 56.6448 87.2453 58.5242L87.0818 60.3596C86.7591 63.4257 86.7918 66.4452 86.7899 69.5281L86.8644 75.1944C86.898 76.2726 86.9875 77.2841 87.0797 78.36L89.8091 106.037C89.9816 108.313 90.0083 108.388 87.9692 109.297L82.5784 111.711ZM66.8846 3.94068C65.3989 4.3454 63.8052 4.91059 62.3937 5.53297C61.6192 5.87453 60.8796 6.30704 60.0849 6.6026C56.5206 7.92834 52.5413 6.94501 49.1234 5.65144L44.9259 4.12376C45.1099 4.63474 45.4262 5.05308 45.6889 5.52335L51.4979 17.8344L54.6595 24.1954C55.1461 25.1807 55.5541 26.1942 56.1544 27.1196L66.844 5.22691C67.0116 4.86722 67.4956 4.09246 66.8846 3.94068ZM42.7599 6.48345L41.5675 8.17514C40.6959 9.44116 41.4461 9.05193 41.94 10.5828L42.9846 13.3287L51.0679 36.9709L53.9152 43.7626C54.3323 44.6168 54.4011 44.4965 54.327 43.6429L54.2358 33.4905C54.2264 32.9724 54.2396 32.4964 54.3568 31.9861C54.7772 30.1547 53.1206 28.0775 52.2669 26.3531L46.8312 15.3484L43.3936 7.69406C43.2245 7.32235 43.0733 6.92516 42.8367 6.59156L42.7599 6.48345ZM69.5342 6.55238L65.3631 15.6194L58.6184 29.1389C57.5434 31.3821 57.7112 32.2972 57.72 34.7821L57.7234 42.4385C57.7214 43.2374 57.6578 44.0603 57.8172 44.8459L58.462 43.6861C60.3405 39.9725 61.7646 36.1655 63.1232 32.2375L68.5773 15.3116C69.3719 13.1507 70.2557 10.9434 71.387 8.93458L69.5342 6.55238ZM55.9506 104.734L55.9304 104.782C54.856 107.26 52.407 110.37 50.0152 111.791C50.8041 111.921 51.6218 111.887 52.4193 111.887L55.9858 111.886L61.9667 111.851L61.2938 111.356C58.869 109.782 57.4143 107.171 56.0185 104.731L55.9506 104.734Z" fill="black"/>
</svg>
