<svg width="106" height="104" viewBox="0 0 106 104" fill="none" xmlns="http://www.w3.org/2000/svg">
<path d="M64.9439 103.533L37.8057 103.591C32.1218 103.593 26.5321 102.797 21.4204 100.109C20.859 102.606 19.3989 102.637 17.0626 102.633C12.8262 102.627 8.55141 101.789 4.56937 100.374C-1.40119 98.2512 0.00851408 96.9254 1.04668 91.7929L6.52804 61.7099L10.5745 31.917C10.7684 30.2458 10.8571 28.5485 11.1659 26.8944C12.3347 20.6325 16.6434 15.0826 22.4395 12.4155C23.8113 11.7843 25.2748 11.3226 26.7152 10.875L31.9244 9.09562C34.1893 8.31871 33.2122 8.87211 34.6888 7.38834C36.6539 5.41346 38.9444 3.84414 40.2969 1.33178C40.6095 0.751049 40.9787 0.541481 41.5862 0.362376C42.657 0.308084 43.6983 0.531175 44.7561 0.558243L55.9361 0.743912C56.5329 0.734334 57.115 0.644645 57.7074 0.62196L61.4118 0.520678C62.2166 0.477549 62.9984 0.363044 63.8121 0.348771C65.6571 0.3164 65.416 1.07705 66.4158 2.43535C67.1549 3.43954 68.0032 4.34977 68.9178 5.19472C69.8684 6.07279 71.1766 6.91666 71.8315 8.03706C72.277 8.79908 74.1995 9.15555 75.0224 9.431L79.6578 11.0105C81.5754 11.6488 83.4961 12.1687 85.2475 13.2203C89.5502 15.8036 93.2286 20.2143 94.4215 25.1714L94.7193 26.3581C95.027 27.3482 95.0566 28.4853 95.1771 29.5122L97.9155 50.5703C97.997 51.0636 98.0165 51.566 98.1086 52.0595L99.4378 61.5511C99.4657 61.8342 99.5461 62.0951 99.5949 62.373L103.278 82.8869L105.627 95.2949C106.098 98.5648 102.069 99.9782 99.5542 100.851C96.0701 102.061 92.2556 102.664 88.5714 102.627C86.9736 102.61 84.744 102.715 84.3791 100.657C84.3389 100.43 84.337 100.094 84.2272 99.8983C79.6014 102.685 75.0362 103.518 69.7929 103.527L64.9439 103.533ZM43.0029 3.4897C43.3112 4.36276 43.8287 5.19889 44.273 6.01071C46.0556 9.26826 50.4305 16.3292 53.3058 18.8443C54.9012 17.0834 56.245 15.238 57.5459 13.2511L62.8748 3.55177L43.0029 3.4897ZM65.2888 5.75266C64.8001 6.56817 64.4165 7.46435 64.0003 8.3199L62.177 11.7552C61.2072 13.4148 60.1719 15.1058 59.0582 16.6758L56.3268 20.3917C57.0111 20.9818 57.8219 21.3533 58.6294 21.7406L61.2037 22.9105L62.606 23.4869C65.7096 20.5301 68.372 13.9684 69.4886 9.83048L65.2888 5.75266ZM40.6174 5.86524C39.3435 7.29755 37.99 8.67577 36.4777 9.8592C36.5187 10.0536 36.5629 10.2216 36.6352 10.4069L37.5342 13.2883C37.8047 14.2821 38.3736 15.2311 38.7812 16.1703C39.852 18.6374 41.5728 21.5874 43.541 23.4881L45.3599 22.6697L50.0975 20.1964C49.9205 19.8482 49.6263 19.5367 49.3782 19.2357L44.8656 13.0438L42.3055 8.73093C41.7641 7.75172 41.2995 6.75844 40.6174 5.86524ZM33.7525 11.6942L33.6784 11.7365C32.3907 12.4603 30.7667 12.7627 29.3686 13.2495L26.8785 14.1129C21.0347 15.992 16.4538 19.4087 14.6446 25.6258C13.9584 27.9842 13.8594 30.3757 13.5516 32.7975L10.6919 54.3947L9.28651 63.7476L3.70084 93.896C3.5507 94.6693 3.44285 95.4802 3.21912 96.235C4.48883 97.5419 10.4634 98.8634 12.1897 99.1588C13.2025 99.332 17.539 99.8312 18.4868 99.5101C18.9165 98.8856 18.9003 97.81 19.0014 97.0779L20.0958 88.7211L20.8181 79.8062L20.9114 75.4939C20.9262 74.986 21.0463 74.4963 21.0576 73.9838L21.059 52.5361C21.0457 51.969 20.9183 51.4034 20.9075 50.827L20.858 45.0261C20.8054 43.776 20.6393 42.7115 20.6301 41.364L20.6174 37.8922C20.617 37.4109 20.5318 36.7158 20.675 36.2631C21.18 34.6674 23.479 34.9002 23.5866 37.0399C23.6073 37.4537 23.6399 37.8695 23.6296 38.2839L23.6793 41.1925C23.7009 42.4063 23.8949 43.5501 23.9102 44.7622L23.9368 49.3006C23.9527 49.8792 24.076 50.4465 24.0903 51.0274L24.092 75.3594C24.0792 75.9598 23.9693 76.5424 23.9501 77.1386L23.6116 84.5709L22.2034 96.6276C22.0577 98.0571 30.1535 99.8204 31.4548 100.085C32.5781 100.313 34.0305 100.412 35.1767 100.421L51.3818 100.458L51.3844 25.1115C51.3843 24.5035 51.455 23.7947 51.3474 23.2018L45.4346 26.0335C43.5752 26.8447 43.0587 27.1687 41.4794 25.7578C39.2055 23.7267 37.2715 20.5012 36.0256 17.7768L33.7525 11.6942ZM72.1876 11.7006C71.1435 15.1599 67.1393 25.2204 63.3653 26.6362L63.2883 26.6665C62.3858 26.9994 61.745 26.4222 60.977 26.0748L55.0254 23.4081C54.8858 23.3381 54.6796 23.1856 54.5305 23.168L54.5521 100.426L65.4747 100.424C67.4916 100.423 69.5573 100.523 71.5674 100.4C74.9743 100.193 77.9876 99.4631 81.1129 98.067C82.0258 97.6592 83.1177 97.2137 83.8435 96.5112L81.9604 75.3594C81.8049 74.3424 81.8899 73.1995 81.889 72.1688L81.9043 53.5786C81.9189 53.1675 82.0313 52.7579 82.0499 52.3416L82.085 45.8351L82.3083 38.6776C82.3183 37.5176 82.0727 35.5481 83.6496 35.2651C85.3851 34.9537 85.3766 36.4112 85.3666 37.5769L85.331 46.4735C85.312 46.935 85.2094 47.3867 85.1856 47.8466L84.9502 54.4684L84.9493 71.204C84.9578 71.6652 85.042 72.1176 85.0514 72.5784L85.1912 79.5084L86.6002 94.2651L86.958 96.5288C87.0921 97.5399 87.1127 98.5814 87.2707 99.5863C91.7148 99.8666 99.2851 98.5606 102.611 95.8099L96.4393 62.1433L92.3763 31.5673C91.7111 25.2195 90.391 20.7626 84.9413 16.683C83.0031 15.2321 80.8678 14.5747 78.5954 13.8462L73.0515 11.99C72.7682 11.8992 72.4797 11.7529 72.1876 11.7006Z" fill="black"/>
</svg>
