<svg width="70" height="116" viewBox="0 0 70 116" fill="none" xmlns="http://www.w3.org/2000/svg">
<path d="M46.3603 0L52.8334 0.537223C54.2771 0.667377 55.7464 0.918637 57.1753 1.16162C61.9946 1.98118 66.7299 3.52188 68.5953 8.60791L68.7841 9.14404C70.2984 14.5779 68.2563 16.6983 65.5597 20.8832L56.0021 35.3883C53.8858 38.6759 51.6629 40.6403 47.5395 39.9206C47.1977 39.861 46.8216 39.6932 46.4872 39.5875L44.4942 44.2651C44.5697 45.0964 44.9971 46.5373 45.2837 47.3079L46.6417 51.8071C46.7459 52.3279 46.9456 52.8514 47.0455 53.3775L52.7515 86.7939C52.8996 87.6107 53.0046 88.4203 53.1987 89.2305L53.4861 90.5205C53.6436 91.2947 53.8559 92.0952 54.0849 92.8508C54.8684 95.4363 52.2321 99.2549 50.7252 101.15L47.1881 105.177L38.542 113.768C37.9988 114.308 37.4563 114.914 36.819 115.345L36.7369 115.399C34.5587 116.854 33.0146 115.337 31.5145 113.834L26.0214 108.48C22.7795 105.387 19.0901 102.067 17.0199 98.0191C15.0432 94.1536 16.2365 91.7801 17.035 87.7547L18.9736 77.5741L22.9772 52.9638L23.8226 49.5956C24.3184 47.967 25.6856 45.1767 25.0852 43.622L23.5769 39.7064C18.2674 40.6684 16.5069 39.3255 13.5673 34.8202L2.60566 18.1835C1.77465 16.9258 1.00548 15.5451 0.755998 14.0371C-0.00685942 9.42623 3.00502 4.64112 7.11716 2.69843C9.39798 1.62093 12.0007 1.24241 14.4786 0.930504L22.3108 0.194791C22.9259 0.158677 23.5587 0.148456 24.1624 0.0172351L24.2378 0H46.3603ZM36.2679 3.73744L22.9801 4.04204L15.9666 4.67627C14.6319 4.84581 13.2852 4.99682 11.969 5.28342C12.2435 5.6967 12.6359 5.91757 13.005 6.23359L30.5173 20.4978C31.6781 19.8199 32.7454 19.4091 34.0764 19.1931C36.0052 18.977 37.9381 19.4479 39.5302 20.5525C39.5493 20.5658 39.5644 20.5963 39.5873 20.5925C39.6282 20.5857 57.2533 6.23475 58.1837 5.22687C51.7626 3.82983 42.7738 3.74138 36.2679 3.73744ZM7.62064 6.77941C5.51721 8.35869 3.94361 10.9045 4.47414 13.6315L4.5548 13.9143C5.00169 15.3395 6.14938 16.6154 6.95238 17.8642L15.8979 31.537C16.6464 32.6879 17.3464 33.8928 18.1697 34.9903C20.3263 37.8655 23.5465 35.5531 25.6311 34.2486C28.2264 32.6246 30.9036 31.1528 33.0549 28.9347C33.4421 28.5354 33.7173 27.9381 34.1958 27.6442C35.3758 26.9195 36.5393 28.337 37.3776 28.9727L44.1949 34.0474C46.2576 35.4871 49.3766 37.6913 51.6152 35.1896C51.9818 34.78 52.2624 34.2851 52.5594 33.8235L57.5804 26.2393C58.4515 24.9073 59.2452 23.492 60.2056 22.2227L63.2826 17.5028C64.6372 15.4259 65.9602 13.8891 65.5187 11.2401L65.4614 11.0081C65.0114 9.40709 63.929 7.62991 62.4139 6.80779L62.3095 6.75867L41.8507 23.7101C41.245 24.245 40.2321 25.7705 39.2655 25.3419L39.2055 25.3167C37.6817 24.6155 37.8733 22.1898 33.6766 23.0977C32.5538 23.3405 32.1849 24.3827 31.2768 24.8208L31.2225 24.8476C30.9315 24.982 30.6209 24.938 30.3237 24.857L30.2484 24.8374C29.8221 24.7194 29.4483 24.4088 29.0994 24.1485L7.62064 6.77941ZM35.1941 32.0649C34.1087 33.1297 32.9389 34.1224 31.6862 34.987L29.7279 36.2126C28.7905 36.7947 27.8599 37.3982 26.8517 37.8557L28.0186 40.9546C28.1079 41.2247 28.1556 41.7951 28.3421 41.9815L34.6277 41.9778L41.6309 41.9842L43.0179 37.8696L35.1941 32.0649ZM30.5999 45.706L29.2001 45.7318C28.7991 46.1967 27.8143 49.474 27.6684 50.126C28.0741 50.7211 28.6749 51.2449 29.1752 51.7649L40.5463 63.3615C41.8009 64.619 43.1659 65.7923 44.3468 67.1203L45.747 68.5238C45.4489 67.578 45.4136 66.5042 45.2385 65.525L43.5589 55.1919C42.9699 51.9535 41.7805 48.8343 40.7671 45.7159L30.5999 45.706ZM26.4196 54.4093L25.1388 62.4661C24.9716 63.6923 24.7325 64.8812 24.6831 66.122L49.1627 91.1323L50.175 92.1258C49.4165 90.2388 49.1254 88.1537 48.7958 86.1544L47.7038 79.7646C47.433 78.1987 47.1796 76.6491 46.7529 75.1147L46.7341 75.0461C46.6546 74.7889 46.2521 74.476 46.0533 74.2766L26.4196 54.4093ZM23.9411 70.7397C23.7798 71.2375 23.745 71.7328 23.6626 72.2453L21.8383 82.3577C22.2448 82.9234 22.7146 83.3872 23.1765 83.9048L42.9464 104.068L45.0972 101.876L47.8605 98.6484C48.3735 97.9864 48.8873 97.311 49.2833 96.5699L48.5129 95.9165C47.6109 95.0718 46.8053 94.1092 45.9359 93.2281L25.0136 72.0554C24.7072 71.7026 24.3293 70.9681 23.9411 70.7397ZM20.9354 87.0556L19.8981 92.5545C19.3295 95.604 20.7009 97.277 22.6507 99.6138C23.7547 100.937 24.9562 102.236 26.1873 103.443L33.9878 110.944C34.3187 111.278 34.6172 111.639 34.9683 111.954L37.0523 109.901L39.3943 107.631C39.6524 107.384 40.1445 107.025 40.3141 106.72L20.9354 87.0556Z" fill="black"/>
</svg>
