<svg width="98" height="96" viewBox="0 0 98 96" fill="none" xmlns="http://www.w3.org/2000/svg">
<ellipse cx="51.5" cy="48.5107" rx="41.5" ry="42.383" fill="#039855" fill-opacity="0.4"/>
<path d="M92.6326 48.5107C92.6326 71.7225 74.2096 90.5262 51.5 90.5262C28.7904 90.5262 10.3674 71.7225 10.3674 48.5107C10.3674 25.2988 28.7904 6.49512 51.5 6.49512C74.2096 6.49512 92.6326 25.2988 92.6326 48.5107Z" stroke="#039855" stroke-opacity="0.4" stroke-width="0.734868"/>
<mask id="path-3-inside-1_128_32799" fill="white">
<path d="M98 48.5107C98 54.7988 96.7772 61.0243 94.4026 66.826C92.028 72.6276 88.5488 77.8899 84.1669 82.3074C79.7851 86.7249 74.5879 90.2096 68.8768 92.5595C63.1658 94.9093 57.0546 96.0774 50.898 95.996C44.7414 95.9146 38.662 94.5853 33.0124 92.0853C27.3628 89.5852 22.2557 85.9642 17.9873 81.4323C13.7189 76.9005 10.3743 71.548 8.14752 65.6855C5.92075 59.823 4.85619 53.5672 5.01559 47.2812L6.03633 47.3082C5.88043 53.4562 6.92162 59.5746 9.09949 65.3083C11.2774 71.0421 14.5485 76.2771 18.7232 80.7094C22.8978 85.1418 27.8928 88.6833 33.4184 91.1284C38.9439 93.5736 44.8898 94.8737 50.9113 94.9533C56.9327 95.0329 62.9096 93.8905 68.4953 91.5922C74.0809 89.294 79.164 85.8857 83.4496 81.5652C87.7352 77.2447 91.138 72.098 93.4605 66.4238C95.783 60.7495 96.9789 54.6607 96.9789 48.5107H98Z"/>
</mask>
<path d="M98 48.5107C98 54.7988 96.7772 61.0243 94.4026 66.826C92.028 72.6276 88.5488 77.8899 84.1669 82.3074C79.7851 86.7249 74.5879 90.2096 68.8768 92.5595C63.1658 94.9093 57.0546 96.0774 50.898 95.996C44.7414 95.9146 38.662 94.5853 33.0124 92.0853C27.3628 89.5852 22.2557 85.9642 17.9873 81.4323C13.7189 76.9005 10.3743 71.548 8.14752 65.6855C5.92075 59.823 4.85619 53.5672 5.01559 47.2812L6.03633 47.3082C5.88043 53.4562 6.92162 59.5746 9.09949 65.3083C11.2774 71.0421 14.5485 76.2771 18.7232 80.7094C22.8978 85.1418 27.8928 88.6833 33.4184 91.1284C38.9439 93.5736 44.8898 94.8737 50.9113 94.9533C56.9327 95.0329 62.9096 93.8905 68.4953 91.5922C74.0809 89.294 79.164 85.8857 83.4496 81.5652C87.7352 77.2447 91.138 72.098 93.4605 66.4238C95.783 60.7495 96.9789 54.6607 96.9789 48.5107H98Z" fill="#039855" fill-opacity="0.4" stroke="#039855" stroke-opacity="0.4" stroke-width="1.46974" mask="url(#path-3-inside-1_128_32799)"/>
<path d="M44.2535 66.3829L30 51.3143L33.0986 48.0385L44.2535 59.8314L70.9014 31.6595L74 34.9353L44.2535 66.3829Z" fill="white" stroke="#039855" stroke-opacity="0.4" stroke-width="0.734868"/>
<path d="M7 32.1702C5.51094 31.7153 4.98118 31.1524 4.5 29.617C4.09511 31.0088 3.58914 31.5963 2 32.1702C3.61032 32.8222 4.11031 33.4023 4.5 34.7234C4.98039 33.3598 5.5295 32.7873 7 32.1702Z" stroke="#039855" stroke-opacity="0.4" stroke-width="0.734868"/>
<path d="M89 12.766C87.5109 12.3111 86.9812 11.7481 86.5 10.2128C86.0951 11.6046 85.5891 12.1921 84 12.766C85.6103 13.418 86.1103 13.998 86.5 15.3192C86.9804 13.9556 87.5295 13.3831 89 12.766Z" stroke="#039855" stroke-opacity="0.4" stroke-width="0.734868"/>
<mask id="path-7-inside-2_128_32799" fill="white">
<path d="M11.7322 19.7858C16.3735 13.1862 22.5953 7.9132 29.8025 4.47122C37.0096 1.02924 44.9609 -0.466592 52.8959 0.126806L52.8213 1.16683C45.0606 0.586466 37.2838 2.04945 30.235 5.41585C23.1861 8.78225 17.101 13.9395 12.5615 20.3941L11.7322 19.7858Z"/>
</mask>
<path d="M11.7322 19.7858C16.3735 13.1862 22.5953 7.9132 29.8025 4.47122C37.0096 1.02924 44.9609 -0.466592 52.8959 0.126806L52.8213 1.16683C45.0606 0.586466 37.2838 2.04945 30.235 5.41585C23.1861 8.78225 17.101 13.9395 12.5615 20.3941L11.7322 19.7858Z" fill="#039855" fill-opacity="0.4" stroke="#039855" stroke-opacity="0.4" stroke-width="1.46974" mask="url(#path-7-inside-2_128_32799)"/>
</svg>
