<svg width="97" height="90" viewBox="0 0 97 90" fill="none" xmlns="http://www.w3.org/2000/svg">
<circle cx="48.246" cy="45.4823" r="39.8383" fill="#D92D20" fill-opacity="0.4"/>
<path d="M92.7138 45.5705C92.7138 51.4527 91.5456 57.2764 89.277 62.7036C87.0084 68.1307 83.6845 73.0533 79.4983 77.1857C75.3121 81.318 70.3469 84.5779 64.8908 86.7761C59.4347 88.9742 53.5964 90.0669 47.7147 89.9908C41.8329 89.9146 36.0249 88.6711 30.6275 86.3325C25.2302 83.9938 20.351 80.6065 16.2732 76.3671C12.1954 72.1278 9.00007 67.1208 6.87272 61.6367C4.74537 56.1526 3.72833 50.3007 3.88061 44.4204L4.85579 44.4456C4.70685 50.1968 5.70156 55.9202 7.78219 61.2839C9.86283 66.6476 12.988 71.5446 16.9762 75.6909C20.9645 79.8371 25.7365 83.15 31.0154 85.4374C36.2942 87.7247 41.9747 88.9409 47.7273 89.0154C53.4799 89.0898 59.19 88.0211 64.5263 85.8712C69.8625 83.7213 74.7187 80.5331 78.813 76.4914C82.9073 72.4498 86.1582 67.6353 88.377 62.3273C90.5958 57.0193 91.7383 51.3235 91.7383 45.5705H92.7138Z" fill="#D92D20" fill-opacity="0.4"/>
<path d="M6.15892 30.0937C4.62253 29.6341 4.07593 29.0654 3.57946 27.5142C3.1617 28.9203 2.63965 29.5139 1 30.0937C2.66151 30.7524 3.17739 31.3384 3.57946 32.6731C4.07512 31.2956 4.64168 30.7172 6.15892 30.0937Z" stroke="#D92D20" stroke-opacity="0.4" stroke-width="0.705493"/>
<path d="M84.4685 11.7508C82.9321 11.2913 82.3855 10.7226 81.889 9.17139C81.4713 10.5775 80.9492 11.1711 79.3096 11.7508C80.9711 12.4096 81.487 12.9956 81.889 14.3303C82.3847 12.9527 82.9512 12.3743 84.4685 11.7508Z" stroke="#D92D20" stroke-opacity="0.4" stroke-width="0.705493"/>
<path d="M9.91558 18.5087C14.3497 12.3351 20.2938 7.40243 27.1791 4.18262C34.0645 0.962806 41.6608 -0.436475 49.2415 0.118621L49.1703 1.09152C41.7561 0.548611 34.3265 1.91717 27.5924 5.06627C20.8582 8.21538 15.0447 13.0397 10.7079 19.0778L9.91558 18.5087Z" fill="#D92D20" fill-opacity="0.4"/>
<path fill-rule="evenodd" clip-rule="evenodd" d="M48.2682 47.6853L34.5756 61.3779L32.3945 59.1968L46.0871 45.5042L32.3947 31.8119L34.5758 29.6308L48.2682 43.3231L61.9606 29.6307L64.1417 31.8118L50.4493 45.5042L64.1419 59.1968L61.9608 61.378L48.2682 47.6853Z" fill="white"/>
</svg>
