<svg width="104" height="104" viewBox="0 0 104 104" fill="none" xmlns="http://www.w3.org/2000/svg">
<g opacity="0.6" clip-path="url(#clip0_237_74596)">
<path d="M31.748 13.9361L30 11.2036C30 11.2036 39.2799 9.89538 50.4255 10.0067C61.5712 10.1227 71.0917 11.1433 72 11.315L70.6743 13.9361C70.6743 13.9361 44.5827 16.3299 31.748 13.9361Z" fill="#694223" stroke="#231F20" stroke-width="0.78075" stroke-miterlimit="10" stroke-linecap="round" stroke-linejoin="round"/>
<path d="M31.748 91.0623L30 93.7959C30 93.7959 39.2799 95.1047 50.4255 94.9933C61.5712 94.8772 71.0917 93.8562 72 93.6845L70.6743 91.0623C70.6743 91.0623 44.5827 88.6721 31.748 91.0623Z" fill="#694223" stroke="#231F20" stroke-width="0.78075" stroke-miterlimit="10" stroke-linecap="round" stroke-linejoin="round"/>
<g opacity="0.57">
<path d="M53.3108 52.0562C53.6156 58.7137 56.6835 61.6775 63.4289 69.6073C70.1743 77.5371 68.9051 90.4921 68.9051 90.4921C48.689 93.8849 34.054 90.4921 34.054 90.4921C34.054 90.4921 32.9547 75.599 40.6794 67.975C48.4041 60.3509 49.8182 55.8682 49.7532 52.4211V52.5789C49.8132 49.1269 48.4041 44.6491 40.6794 37.025C32.9547 29.401 34.054 14.5079 34.054 14.5079C34.054 14.5079 48.689 11.1151 68.9051 14.5079C68.9051 14.5079 70.1743 27.4629 63.4289 35.3927C56.6835 43.3225 53.6156 46.2863 53.3108 52.9438" fill="white"/>
<path d="M53.3108 52.0562C53.6156 58.7137 56.6835 61.6775 63.4289 69.6073C70.1743 77.5371 68.9051 90.4921 68.9051 90.4921C48.689 93.8849 34.054 90.4921 34.054 90.4921C34.054 90.4921 32.9547 75.599 40.6794 67.975C48.4041 60.3509 49.8182 55.8682 49.7532 52.4211V52.5789C49.8132 49.1269 48.4041 44.6491 40.6794 37.025C32.9547 29.401 34.054 14.5079 34.054 14.5079C34.054 14.5079 48.689 11.1151 68.9051 14.5079C68.9051 14.5079 70.1743 27.4629 63.4289 35.3927C56.6835 43.3225 53.6156 46.2863 53.3108 52.9438" stroke="#231F20" stroke-width="1.10606" stroke-miterlimit="10" stroke-linecap="round" stroke-linejoin="round"/>
</g>
<path d="M37 27.718C37 27.718 38.7525 34.4895 45.6985 40.7141C48.2337 43.3392 50.7148 48.2215 50.5918 52L52.2852 51.9403C52.2852 51.9403 51.1382 46.024 56.9372 40.2866C62.7362 34.5492 65.6997 29.7912 66 27.534C66 27.534 57.4196 34.1216 51.9849 32.9035C46.5502 31.6855 44.1872 24.7896 37 27.718Z" fill="#946223"/>
<path d="M46 28.2672C57.2077 23.6076 66 27.5744 66 27.5744C66 27.5744 61.3608 30.9767 56.5989 32.6137C51.837 34.2507 48.4644 30.1556 48.4644 30.1556C47.566 29.3859 46.7462 28.7649 46 28.2672Z" fill="#946223"/>
<path d="M36 88.4939C36 88.4939 50.2272 91.7994 67 88.6164C67 88.6164 54.1639 86.0308 53.8038 76.9567C53.4387 67.8825 51.9884 68.0001 51.9884 68.0001C51.9884 68.0001 50.7798 75.3407 46.7198 81.3444C44.4258 84.7331 42.9706 88.0826 36 88.4939Z" fill="#946223"/>
</g>
<defs>
<clipPath id="clip0_237_74596">
<rect width="104" height="104" fill="white"/>
</clipPath>
</defs>
</svg>
