<svg width="107" height="104" viewBox="0 0 107 104" fill="none" xmlns="http://www.w3.org/2000/svg">
<path d="M39.2488 24C34.9792 14.5003 24.232 -0.369539 41.4473 1.10138C58.6627 2.57229 68.0219 15.7261 65.6309 24" stroke="#0E3687" stroke-opacity="0.4" stroke-width="1.14502"/>
<path d="M0.808503 99.4529L15.1136 19H75.5682L93.9182 99.268C94.4721 101.691 92.6311 104 90.1459 104H4.61839C2.21021 104 0.386922 101.824 0.808503 99.4529Z" fill="#103FD5" fill-opacity="0.4"/>
<path d="M30 19H15L0.801553 99.4579C0.3834 101.827 2.20617 104 4.61231 104H21.4286L30 19Z" fill="#1342A0" fill-opacity="0.4"/>
<path d="M44.9874 23.5814C44.9874 23.092 42.16 16 46.074 16C49.988 16 46.0114 41.5039 60.1997 41.9933C74.388 42.4827 67.9708 16 64.546 16C61.8062 16 61.7205 21.1342 62.3728 23.5814" stroke="#0E3687" stroke-opacity="0.4" stroke-width="1.14502"/>
<circle cx="45.5" cy="22.5" r="1.5" fill="#0E3687" fill-opacity="0.4"/>
<circle cx="62.5" cy="22.5" r="1.5" fill="#0E3687" fill-opacity="0.4"/>
<path d="M71 49.6429L74.1875 40L81.625 45.3571L88 70H81.625L71 49.6429Z" fill="#0E3687" fill-opacity="0.4"/>
<path fill-rule="evenodd" clip-rule="evenodd" d="M75.0151 44.4506L87.976 66.2903C88.1951 66.6595 88.7208 66.9588 89.1501 66.9588H103.595C104.025 66.9588 104.195 66.6595 103.976 66.2903L91.0003 44.4257C90.9116 44.2763 90.7672 44.1311 90.5902 44.0134L79.4782 36.628C78.9856 36.3006 78.406 36.2845 78.2673 36.5944L74.9487 44.0046C74.8938 44.1272 74.9174 44.286 75.0151 44.4506ZM81.0415 41.4399C82.1461 41.4399 82.5845 40.6699 82.0208 39.72C81.4571 38.7701 80.1047 38.0001 79.0001 38.0001C77.8955 38.0001 77.4571 38.7701 78.0208 39.72C78.5845 40.6699 79.9369 41.4399 81.0415 41.4399Z" fill="#1342A0" fill-opacity="0.4"/>
<path d="M81.0621 55.1598C80.6862 53.7603 80.5267 50.1702 85.096 51.1728C90.8076 52.4261 86.1629 49.2361 89.8378 50.1761C93.5127 51.116 91.7631 54.6017 96.4706 54.163" stroke="#0E3687" stroke-opacity="0.4" stroke-width="0.388676"/>
<path d="M85.5725 59.0198C85.0989 57.4496 84.4228 53.0491 89.0967 54.174C94.9392 55.5802 90.0868 52.1503 93.8549 53.2049C97.6231 54.2595 95.7063 57.5736 100.422 57.0815" stroke="#0E3687" stroke-opacity="0.4" stroke-width="0.388676"/>
<path d="M78 39L69 18" stroke="#0E3687" stroke-opacity="0.4" stroke-width="0.483706" stroke-linecap="round"/>
<path d="M70 19L74 40" stroke="#1342A0" stroke-opacity="0.4" stroke-width="0.572511" stroke-linecap="round"/>
</svg>
