<svg width="162" height="113" viewBox="0 0 162 113" fill="none" xmlns="http://www.w3.org/2000/svg">
<rect width="28.9842" height="28.9842" rx="3.62302" transform="matrix(0.999848 0.0174524 -0.406737 0.913545 36.3493 28.6849)" fill="#E9E4F9" fill-opacity="0.5"/>
<rect width="28.9842" height="28.9842" rx="3.62302" transform="matrix(0.999848 0.0174524 -0.406737 0.913545 52.5577 57.8756)" fill="#E9E4F9" fill-opacity="0.5"/>
<rect width="28.9842" height="28.9842" rx="3.62302" transform="matrix(0.999848 0.0174524 -0.406737 0.913545 96.7237 29.7387)" fill="#E9E4F9" fill-opacity="0.5"/>
<rect width="28.9842" height="28.9842" rx="3.62302" transform="matrix(0.999848 0.0174524 -0.406737 0.913545 83.9524 58.4236)" fill="#E9E4F9" fill-opacity="0.5"/>
<rect width="28.9842" height="28.9842" rx="3.62302" transform="matrix(0.999848 0.0174524 -0.406737 0.913545 11.789 83.8481)" fill="#E9E4F9" fill-opacity="0.5"/>
<rect width="28.9842" height="28.9842" rx="3.62302" transform="matrix(0.999848 0.0174524 -0.406737 0.913545 138.475 1.55969)" fill="#E9E4F9" fill-opacity="0.5"/>
<rect width="28.9842" height="28.9842" rx="3.62302" transform="matrix(0.999848 0.0174524 -0.406737 0.913545 78.1004 0.505859)" fill="#E9E4F9" fill-opacity="0.5"/>
</svg>
