<svg width="18" height="18" viewBox="0 0 18 18" fill="none" xmlns="http://www.w3.org/2000/svg">
<path d="M11.6441 6.28874C11.6441 7.04018 11.3456 7.76085 10.8143 8.29221C10.2829 8.82356 9.56223 9.12207 8.81078 9.12207C8.05934 9.12207 7.33867 8.82356 6.80732 8.29221C6.27596 7.76085 5.97745 7.04018 5.97745 6.28874M2.88431 5.86472L2.38848 11.8147C2.28196 13.0929 2.22871 13.732 2.44477 14.225C2.6346 14.6582 2.96351 15.0157 3.37942 15.2408C3.85279 15.4971 4.4941 15.4971 5.77674 15.4971H11.8448C13.1275 15.4971 13.7688 15.4971 14.2422 15.2408C14.6581 15.0157 14.987 14.6582 15.1768 14.225C15.3929 13.732 15.3396 13.0929 15.2331 11.8147L14.7373 5.86472C14.6456 4.76494 14.5998 4.21504 14.3562 3.79884C14.1418 3.43234 13.8224 3.1385 13.4394 2.95521C13.0044 2.74707 12.4526 2.74707 11.349 2.74707L6.27257 2.74707C5.16898 2.74707 4.61718 2.74707 4.18219 2.95521C3.79914 3.1385 3.4798 3.43234 3.26533 3.79884C3.02179 4.21504 2.97596 4.76493 2.88431 5.86472Z" stroke="white" stroke-linecap="round" stroke-linejoin="round"/>
</svg>
