<svg width="10" height="9" viewBox="0 0 10 9" fill="none" xmlns="http://www.w3.org/2000/svg">
<path d="M5.03139 7.58137C4.89569 7.49915 4.72553 7.49916 4.58984 7.5814L2.50869 8.8428C2.18612 9.03831 1.78735 8.74904 1.87306 8.38171L2.42481 6.01721C2.46065 5.8636 2.40868 5.70276 2.28973 5.59917L0.457854 4.00388C0.174098 3.75677 0.326641 3.29003 0.701562 3.25819L3.11571 3.05318C3.27291 3.03983 3.40986 2.94069 3.47163 2.79551L4.41906 0.568772C4.56611 0.22317 5.05596 0.22317 5.20301 0.568772L6.15044 2.79551C6.21221 2.94069 6.34916 3.03983 6.50637 3.05318L8.92051 3.25819C9.29543 3.29003 9.44797 3.75677 9.16422 4.00388L7.33234 5.59917C7.21339 5.70276 7.16142 5.8636 7.19726 6.01721L7.74904 8.38187C7.83475 8.74918 7.43603 9.03845 7.11346 8.84299L5.03139 7.58137Z" fill="#FFC500"/>
</svg>
