<svg width="10" height="9" viewBox="0 0 10 9" fill="none" xmlns="http://www.w3.org/2000/svg">
<path d="M5.03139 7.41438C4.89569 7.33215 4.72553 7.33216 4.58984 7.41441L2.50869 8.6758C2.18612 8.87132 1.78735 8.58205 1.87306 8.21472L2.42481 5.85021C2.46065 5.69661 2.40868 5.53577 2.28973 5.43218L0.457854 3.83689C0.174098 3.58978 0.326641 3.12304 0.701562 3.0912L3.11571 2.88619C3.27291 2.87284 3.40986 2.7737 3.47163 2.62852L4.41906 0.401779C4.56611 0.0561774 5.05596 0.0561779 5.20301 0.40178L6.15044 2.62852C6.21221 2.7737 6.34916 2.87284 6.50637 2.88619L8.92051 3.0912C9.29543 3.12304 9.44797 3.58978 9.16422 3.83689L7.33234 5.43218C7.21339 5.53576 7.16142 5.69661 7.19726 5.85022L7.74904 8.21488C7.83475 8.58219 7.43603 8.87146 7.11346 8.67599L5.03139 7.41438Z" fill="#E0E8F1"/>
</svg>
